<mxfile host="app.diagrams.net" modified="2024-02-20T21:34:53.801Z" agent="Mozilla/5.0 (Windows NT 10.0; Win64; x64; rv:109.0) Gecko/20100101 Firefox/115.0" etag="sQx5_olY6KL4h_IK9DUK" version="23.1.5" type="github">
  <diagram name="Page-1" id="y6ZQSzP0ALwCJ_JiFRtF">
    <mxGraphModel dx="1434" dy="754" grid="1" gridSize="10" guides="1" tooltips="1" connect="1" arrows="1" fold="1" page="1" pageScale="1" pageWidth="850" pageHeight="1100" math="0" shadow="0">
      <root>
        <mxCell id="0" />
        <mxCell id="1" parent="0" />
        <mxCell id="cA2UkJtS5OzsVgOEnSNi-57" value="" style="edgeStyle=orthogonalEdgeStyle;rounded=0;orthogonalLoop=1;jettySize=auto;html=1;" edge="1" parent="1" source="cA2UkJtS5OzsVgOEnSNi-1" target="cA2UkJtS5OzsVgOEnSNi-54">
          <mxGeometry relative="1" as="geometry" />
        </mxCell>
        <mxCell id="cA2UkJtS5OzsVgOEnSNi-1" value="Start" style="ellipse;whiteSpace=wrap;html=1;fillColor=#d5e8d4;strokeColor=#82b366;" vertex="1" parent="1">
          <mxGeometry x="80" y="40" width="120" height="80" as="geometry" />
        </mxCell>
        <mxCell id="cA2UkJtS5OzsVgOEnSNi-17" value="" style="edgeStyle=orthogonalEdgeStyle;rounded=0;orthogonalLoop=1;jettySize=auto;html=1;" edge="1" parent="1" source="cA2UkJtS5OzsVgOEnSNi-11" target="cA2UkJtS5OzsVgOEnSNi-16">
          <mxGeometry relative="1" as="geometry" />
        </mxCell>
        <mxCell id="cA2UkJtS5OzsVgOEnSNi-11" value="" style="ellipse;whiteSpace=wrap;html=1;aspect=fixed;fillColor=#f5f5f5;fontColor=#333333;strokeColor=#666666;" vertex="1" parent="1">
          <mxGeometry x="130" y="350" width="20" height="20" as="geometry" />
        </mxCell>
        <mxCell id="cA2UkJtS5OzsVgOEnSNi-19" value="" style="edgeStyle=orthogonalEdgeStyle;rounded=0;orthogonalLoop=1;jettySize=auto;html=1;entryX=0.5;entryY=0;entryDx=0;entryDy=0;" edge="1" parent="1" source="cA2UkJtS5OzsVgOEnSNi-16" target="cA2UkJtS5OzsVgOEnSNi-20">
          <mxGeometry relative="1" as="geometry">
            <mxPoint x="140" y="590" as="targetPoint" />
          </mxGeometry>
        </mxCell>
        <mxCell id="cA2UkJtS5OzsVgOEnSNi-24" value="Yes" style="edgeLabel;html=1;align=center;verticalAlign=middle;resizable=0;points=[];" vertex="1" connectable="0" parent="cA2UkJtS5OzsVgOEnSNi-19">
          <mxGeometry x="-0.0889" relative="1" as="geometry">
            <mxPoint as="offset" />
          </mxGeometry>
        </mxCell>
        <mxCell id="cA2UkJtS5OzsVgOEnSNi-26" value="" style="edgeStyle=orthogonalEdgeStyle;rounded=0;orthogonalLoop=1;jettySize=auto;html=1;" edge="1" parent="1" source="cA2UkJtS5OzsVgOEnSNi-16" target="cA2UkJtS5OzsVgOEnSNi-25">
          <mxGeometry relative="1" as="geometry" />
        </mxCell>
        <mxCell id="cA2UkJtS5OzsVgOEnSNi-28" value="No" style="edgeLabel;html=1;align=center;verticalAlign=middle;resizable=0;points=[];" vertex="1" connectable="0" parent="cA2UkJtS5OzsVgOEnSNi-26">
          <mxGeometry x="0.2" y="2" relative="1" as="geometry">
            <mxPoint as="offset" />
          </mxGeometry>
        </mxCell>
        <mxCell id="cA2UkJtS5OzsVgOEnSNi-16" value="&lt;div&gt;Grill is Hot enough?&lt;/div&gt;&lt;div&gt;350&lt;b&gt;°F&lt;/b&gt;&lt;/div&gt;" style="rhombus;whiteSpace=wrap;html=1;" vertex="1" parent="1">
          <mxGeometry x="90" y="410" width="100" height="90" as="geometry" />
        </mxCell>
        <mxCell id="cA2UkJtS5OzsVgOEnSNi-34" value="" style="edgeStyle=orthogonalEdgeStyle;rounded=0;orthogonalLoop=1;jettySize=auto;html=1;" edge="1" parent="1" source="cA2UkJtS5OzsVgOEnSNi-20" target="cA2UkJtS5OzsVgOEnSNi-33">
          <mxGeometry relative="1" as="geometry" />
        </mxCell>
        <mxCell id="cA2UkJtS5OzsVgOEnSNi-20" value="Start to Cook Steaks" style="rounded=1;whiteSpace=wrap;html=1;" vertex="1" parent="1">
          <mxGeometry x="80" y="580" width="120" height="60" as="geometry" />
        </mxCell>
        <mxCell id="cA2UkJtS5OzsVgOEnSNi-25" value="Wait 3 minutes" style="whiteSpace=wrap;html=1;" vertex="1" parent="1">
          <mxGeometry x="240" y="425" width="120" height="60" as="geometry" />
        </mxCell>
        <mxCell id="cA2UkJtS5OzsVgOEnSNi-27" value="" style="endArrow=classic;html=1;rounded=0;exitX=0.5;exitY=0;exitDx=0;exitDy=0;entryX=1;entryY=0.5;entryDx=0;entryDy=0;" edge="1" parent="1" source="cA2UkJtS5OzsVgOEnSNi-25" target="cA2UkJtS5OzsVgOEnSNi-11">
          <mxGeometry width="50" height="50" relative="1" as="geometry">
            <mxPoint x="400" y="590" as="sourcePoint" />
            <mxPoint x="450" y="540" as="targetPoint" />
            <Array as="points">
              <mxPoint x="300" y="360" />
            </Array>
          </mxGeometry>
        </mxCell>
        <mxCell id="cA2UkJtS5OzsVgOEnSNi-32" value="" style="edgeStyle=orthogonalEdgeStyle;rounded=0;orthogonalLoop=1;jettySize=auto;html=1;" edge="1" parent="1" source="cA2UkJtS5OzsVgOEnSNi-30" target="cA2UkJtS5OzsVgOEnSNi-11">
          <mxGeometry relative="1" as="geometry" />
        </mxCell>
        <mxCell id="cA2UkJtS5OzsVgOEnSNi-30" value="Turn on Grill" style="rounded=1;whiteSpace=wrap;html=1;" vertex="1" parent="1">
          <mxGeometry x="80" y="250" width="120" height="60" as="geometry" />
        </mxCell>
        <mxCell id="cA2UkJtS5OzsVgOEnSNi-37" value="" style="edgeStyle=orthogonalEdgeStyle;rounded=0;orthogonalLoop=1;jettySize=auto;html=1;" edge="1" parent="1" source="cA2UkJtS5OzsVgOEnSNi-33" target="cA2UkJtS5OzsVgOEnSNi-36">
          <mxGeometry relative="1" as="geometry" />
        </mxCell>
        <mxCell id="cA2UkJtS5OzsVgOEnSNi-33" value="" style="ellipse;whiteSpace=wrap;html=1;aspect=fixed;fillColor=#f5f5f5;fontColor=#333333;strokeColor=#666666;" vertex="1" parent="1">
          <mxGeometry x="130" y="680" width="20" height="20" as="geometry" />
        </mxCell>
        <mxCell id="cA2UkJtS5OzsVgOEnSNi-39" value="" style="edgeStyle=orthogonalEdgeStyle;rounded=0;orthogonalLoop=1;jettySize=auto;html=1;" edge="1" parent="1" source="cA2UkJtS5OzsVgOEnSNi-36" target="cA2UkJtS5OzsVgOEnSNi-38">
          <mxGeometry relative="1" as="geometry" />
        </mxCell>
        <mxCell id="cA2UkJtS5OzsVgOEnSNi-40" value="No" style="edgeLabel;html=1;align=center;verticalAlign=middle;resizable=0;points=[];" vertex="1" connectable="0" parent="cA2UkJtS5OzsVgOEnSNi-39">
          <mxGeometry x="-0.1" y="-1" relative="1" as="geometry">
            <mxPoint as="offset" />
          </mxGeometry>
        </mxCell>
        <mxCell id="cA2UkJtS5OzsVgOEnSNi-42" value="" style="edgeStyle=orthogonalEdgeStyle;rounded=0;orthogonalLoop=1;jettySize=auto;html=1;" edge="1" parent="1" source="cA2UkJtS5OzsVgOEnSNi-36">
          <mxGeometry relative="1" as="geometry">
            <mxPoint x="140" y="910" as="targetPoint" />
          </mxGeometry>
        </mxCell>
        <mxCell id="cA2UkJtS5OzsVgOEnSNi-43" value="Yes" style="edgeLabel;html=1;align=center;verticalAlign=middle;resizable=0;points=[];" vertex="1" connectable="0" parent="cA2UkJtS5OzsVgOEnSNi-42">
          <mxGeometry x="-0.275" y="-2" relative="1" as="geometry">
            <mxPoint as="offset" />
          </mxGeometry>
        </mxCell>
        <mxCell id="cA2UkJtS5OzsVgOEnSNi-36" value="&lt;div&gt;Steaks are up to Temp?&lt;/div&gt;&lt;div&gt;120&lt;b&gt;°F&lt;/b&gt;&lt;/div&gt;" style="rhombus;whiteSpace=wrap;html=1;" vertex="1" parent="1">
          <mxGeometry x="85" y="730" width="110" height="110" as="geometry" />
        </mxCell>
        <mxCell id="cA2UkJtS5OzsVgOEnSNi-38" value="Flip them and continue Cooking for 2 minutes " style="whiteSpace=wrap;html=1;" vertex="1" parent="1">
          <mxGeometry x="240" y="755" width="120" height="60" as="geometry" />
        </mxCell>
        <mxCell id="cA2UkJtS5OzsVgOEnSNi-41" value="" style="endArrow=classic;html=1;rounded=0;exitX=0.5;exitY=0;exitDx=0;exitDy=0;entryX=1;entryY=0.5;entryDx=0;entryDy=0;" edge="1" parent="1">
          <mxGeometry width="50" height="50" relative="1" as="geometry">
            <mxPoint x="300" y="760" as="sourcePoint" />
            <mxPoint x="150" y="690" as="targetPoint" />
            <Array as="points">
              <mxPoint x="300" y="690" />
            </Array>
          </mxGeometry>
        </mxCell>
        <mxCell id="cA2UkJtS5OzsVgOEnSNi-44" value="End" style="ellipse;whiteSpace=wrap;html=1;fillColor=#f8cecc;strokeColor=#b85450;" vertex="1" parent="1">
          <mxGeometry x="80" y="1010" width="120" height="80" as="geometry" />
        </mxCell>
        <mxCell id="cA2UkJtS5OzsVgOEnSNi-46" value="" style="edgeStyle=orthogonalEdgeStyle;rounded=0;orthogonalLoop=1;jettySize=auto;html=1;" edge="1" parent="1" source="cA2UkJtS5OzsVgOEnSNi-45" target="cA2UkJtS5OzsVgOEnSNi-44">
          <mxGeometry relative="1" as="geometry" />
        </mxCell>
        <mxCell id="cA2UkJtS5OzsVgOEnSNi-45" value="Take Them off the Grill" style="rounded=1;whiteSpace=wrap;html=1;" vertex="1" parent="1">
          <mxGeometry x="80" y="910" width="120" height="60" as="geometry" />
        </mxCell>
        <mxCell id="cA2UkJtS5OzsVgOEnSNi-51" value="Grilling Steaks" style="shape=table;startSize=30;container=1;collapsible=0;childLayout=tableLayout;" vertex="1" parent="1">
          <mxGeometry x="450" y="360" width="300" height="550" as="geometry" />
        </mxCell>
        <mxCell id="cA2UkJtS5OzsVgOEnSNi-52" value="" style="shape=tableRow;horizontal=0;startSize=0;swimlaneHead=0;swimlaneBody=0;strokeColor=inherit;top=0;left=0;bottom=0;right=0;collapsible=0;dropTarget=0;fillColor=none;points=[[0,0.5],[1,0.5]];portConstraint=eastwest;" vertex="1" parent="cA2UkJtS5OzsVgOEnSNi-51">
          <mxGeometry y="30" width="300" height="520" as="geometry" />
        </mxCell>
        <mxCell id="cA2UkJtS5OzsVgOEnSNi-53" value="&lt;ul&gt;&lt;li align=&quot;left&quot;&gt;&lt;h4&gt;Take the steaks out of fridge,&lt;/h4&gt;&lt;/li&gt;&lt;li align=&quot;left&quot;&gt;&lt;h4&gt;Let them rest for an hour &lt;/h4&gt;&lt;/li&gt;&lt;li align=&quot;left&quot;&gt;&lt;h4&gt;Salt, pepper and olive oil them&lt;/h4&gt;&lt;/li&gt;&lt;li align=&quot;left&quot;&gt;&lt;h4&gt;Turn on grill&lt;/h4&gt;&lt;/li&gt;&lt;li align=&quot;left&quot;&gt;&lt;h4&gt;Let grill get to temp 350&lt;b&gt;°F&lt;/b&gt;&lt;/h4&gt;&lt;/li&gt;&lt;li align=&quot;left&quot;&gt;&lt;h4&gt;Check the grill temp, if not ready wait another 3 minutes&lt;/h4&gt;&lt;/li&gt;&lt;li align=&quot;left&quot;&gt;&lt;h4&gt;Keep checking until it is up to temp every 3 minutes&lt;/h4&gt;&lt;/li&gt;&lt;li align=&quot;left&quot;&gt;&lt;h4&gt;Put the steaks on the grill,&lt;/h4&gt;&lt;/li&gt;&lt;li align=&quot;left&quot;&gt;&lt;h4&gt;Flip them after 2 minutes&lt;/h4&gt;&lt;/li&gt;&lt;li align=&quot;left&quot;&gt;&lt;h4&gt;Then wait until interior temp on steaks reaches 120&lt;b&gt;°F&lt;/b&gt;&lt;/h4&gt;&lt;/li&gt;&lt;li align=&quot;left&quot;&gt;&lt;h4&gt;Check for temp in 5 minutes&lt;/h4&gt;&lt;/li&gt;&lt;li align=&quot;left&quot;&gt;&lt;h4&gt;If not up to temp check in another 5 minutes until temp isreached&lt;/h4&gt;&lt;/li&gt;&lt;li align=&quot;left&quot;&gt;&lt;h4&gt;Take steaks off grill if cooked&lt;/h4&gt;&lt;/li&gt;&lt;li align=&quot;left&quot;&gt;&lt;h4&gt;Serve and enjoy&lt;/h4&gt;&lt;/li&gt;&lt;/ul&gt;" style="shape=partialRectangle;html=1;whiteSpace=wrap;connectable=0;strokeColor=inherit;overflow=hidden;fillColor=none;top=0;left=0;bottom=0;right=0;pointerEvents=1;align=left;" vertex="1" parent="cA2UkJtS5OzsVgOEnSNi-52">
          <mxGeometry width="300" height="520" as="geometry">
            <mxRectangle width="300" height="520" as="alternateBounds" />
          </mxGeometry>
        </mxCell>
        <mxCell id="cA2UkJtS5OzsVgOEnSNi-55" value="" style="edgeStyle=orthogonalEdgeStyle;rounded=0;orthogonalLoop=1;jettySize=auto;html=1;" edge="1" parent="1" source="cA2UkJtS5OzsVgOEnSNi-54" target="cA2UkJtS5OzsVgOEnSNi-30">
          <mxGeometry relative="1" as="geometry" />
        </mxCell>
        <mxCell id="cA2UkJtS5OzsVgOEnSNi-54" value="Get Steaks Ready" style="rounded=1;whiteSpace=wrap;html=1;" vertex="1" parent="1">
          <mxGeometry x="80" y="150" width="120" height="60" as="geometry" />
        </mxCell>
      </root>
    </mxGraphModel>
  </diagram>
</mxfile>
